<?xml version="1.0" standalone="no"?>
<!DOCTYPE svg PUBLIC "-//W3C//DTD SVG 20010904//EN"
 "http://www.w3.org/TR/2001/REC-SVG-20010904/DTD/svg10.dtd">
<svg version="1.0" xmlns="http://www.w3.org/2000/svg"
 width="303.000000pt" height="303.000000pt" viewBox="0 0 303.000000 303.000000"
 preserveAspectRatio="xMidYMid meet">
<metadata>
Created by potrace 1.14, written by Peter Selinger 2001-2017
</metadata>
<g transform="translate(0.000000,303.000000) scale(0.100000,-0.100000)"
fill="#000000" stroke="none">
<path d="M1335 2889 c-113 -15 -282 -66 -391 -118 -154 -74 -266 -153 -389
-276 -192 -191 -304 -391 -373 -665 -24 -95 -27 -123 -27 -295 0 -145 4 -210
18 -274 92 -428 347 -771 714 -959 218 -111 389 -152 638 -152 250 0 383 31
610 140 204 98 357 224 495 408 126 168 206 348 250 562 19 92 21 128 17 295
-4 171 -7 202 -35 305 -133 505 -513 879 -1024 1006 -84 20 -133 26 -268 29
-91 2 -196 0 -235 -6z"/>
</g>
</svg>
